<?xml version="1.0"?>
<svg enable-background="new 0 0 512 512" id="Layer_1" version="1.1" viewBox="0 0 512 512" xml:space="preserve" xmlns="http://www.w3.org/2000/svg" xmlns:xlink="http://www.w3.org/1999/xlink">
	<g>
		<g>
			<linearGradient gradientUnits="userSpaceOnUse" id="SVGID_1_" x1="0.0000083" x2="512" y1="256" y2="256">
				<stop offset="0" style="stop-color:#F67950" />
				<stop offset="1" style="stop-color:#F15A29" />
			</linearGradient>
			<circle class="circle" cx="256" cy="256" fill="url(#SVGID_1_)" r="256" />
			<linearGradient gradientUnits="userSpaceOnUse" id="SVGID_2_" x1="42.6666756" x2="469.333313" y1="256.0005188" y2="256.0005188">
				<stop offset="0" style="stop-color:#F15A29" />
				<stop offset="1" style="stop-color:#F67950" />
			</linearGradient>
			<path class="in-circle" d="M256,469.3338623c-117.6309204,0-213.3333282-95.7018738-213.3333282-213.3333435    S138.3690796,42.6671982,256,42.6671982c117.636261,0,213.333313,95.7018661,213.333313,213.333313    S373.636261,469.3338623,256,469.3338623z" fill="url(#SVGID_2_)" />
		</g>
		<path class="mark-1" d="M364,144H164.0000153c-11.0453339,0-20,9.9151917-20,22.1455994v148.4842529   c0,12.2314758,8.9546661,22.1456299,20,22.1456299h37.3999786l0.375473,47.223999l64.8245392-47.223999H364   c11.0458679,0,20-9.9141541,20-22.1456299V166.1455994C384,153.9151917,375.0458679,144,364,144z M323.9989319,289.5856018h-120   v-10h120V289.5856018z M348.9989319,246.2165375h-170v-10h170V246.2165375z M348.9989319,202.8522644h-170v-10h170V202.8522644z" opacity="0.3" />
		<path class="mark-2" d="M356,136H156.0000153c-11.0453339,0-20,9.9151917-20,22.1455994v148.4842529   c0,12.2314758,8.9546661,22.1456299,20,22.1456299h37.3999786l0.375473,47.223999l64.8245392-47.223999H356   c11.0458679,0,20-9.9141541,20-22.1456299V158.1455994C376,145.9151917,367.0458679,136,356,136z M315.9989319,281.5856018h-120   v-10h120V281.5856018z M340.9989319,238.2165375H170.9989471v-10h169.9999847V238.2165375z M340.9989319,194.8522644H170.9989471   v-10h169.9999847V194.8522644z" fill="#FFFFFF" />
	</g>
</svg>
